<svg xmlns="http://www.w3.org/2000/svg" width="1716" height="917" viewBox="0 0 1716 917">
<path d="M 799.78 750.50 C 796.31 748.55 795.00 746.07 795.00 741.49 L 798.00 734.85 C 799.65 733.20 801.00 731.66 801.00 731.42 C 801.00 731.19 796.49 731.00 790.98 731.00 L 779.87 728.61 L 780.15 723.36 L 787.51 720.00 L 794.03 666.50 L 796.73 607.72 C 802.25 593.08 810.94 581.54 822.03 574.14 C 828.98 569.50 840.70 564.83 850.00 563.00 C 853.58 562.29 856.92 561.34 857.43 560.88 L 856.83 558.27 C 854.37 555.41 853.91 553.04 855.02 548.91 L 857.97 544.02 C 859.01 543.46 861.39 543.00 863.26 543.00 L 868.70 545.25 C 872.23 549.13 872.23 555.85 868.70 558.15 C 867.10 559.19 868.71 561.90 871.21 562.37 C 882.23 564.41 889.77 566.70 896.94 570.16 L 913.46 582.37 L 924.68 596.50 C 926.41 599.80 928.88 605.42 930.16 609.00 L 932.80 667.75 L 938.50 720.00 L 945.44 722.22 C 947.30 724.88 947.46 728.14 945.80 729.80 L 935.30 731.00 C 930.18 731.00 926.00 731.19 926.00 731.42 C 926.00 731.66 927.35 733.20 929.00 734.85 L 932.00 741.35 L 929.44 747.89 L 923.42 751.58 L 916.94 750.97 C 913.34 749.48 911.00 745.42 911.00 740.65 L 913.48 734.85 C 914.85 733.56 915.97 732.16 915.98 731.75 C 915.99 731.34 892.04 731.01 862.75 731.02 L 811.63 732.77 C 814.50 735.10 816.00 738.23 816.00 741.92 L 813.25 748.05 L 806.50 751.58 L 799.78 750.50" fill="currentColor"/>
<path d="M 807.80 741.37 L 806.38 738.59 L 803.16 739.41 L 802.99 742.49 C 804.76 744.62 807.43 743.99 807.80 741.37" fill="currentColor"/>
<path d="M 924.00 742.50 L 924.00 739.50 C 923.32 738.67 922.19 738.00 921.50 738.00 C 920.81 738.00 919.68 738.67 919.00 739.50 L 919.00 742.50 C 919.68 743.33 920.81 744.00 921.50 744.00 C 922.19 744.00 923.32 743.33 924.00 742.50" fill="currentColor"/>
<path d="M 251.00 736.00 L 490.00 735.00 L 729.00 736.00 L 490.00 737.00 L 251.00 736.00" fill="currentColor"/>
<path d="M 1005.00 736.00 L 1243.50 735.00 L 1482.00 736.00 L 1243.50 737.00 L 1005.00 736.00" fill="currentColor"/>
<path d="M 923.81 670.50 L 922.96 616.00 C 921.49 609.04 917.16 599.94 912.25 593.50 C 907.32 587.03 896.21 578.70 888.28 575.52 C 884.84 574.15 879.61 572.74 876.64 572.39 L 869.12 573.88 L 863.13 576.00 L 856.73 574.00 L 851.14 572.00 C 846.99 572.00 836.22 576.02 829.39 580.12 C 822.40 584.32 813.29 594.10 809.17 601.83 C 807.46 605.05 805.37 610.57 804.54 614.09 L 803.01 670.26 L 863.25 719.76 L 923.81 670.50" fill="currentColor"/>
<path d="M 826.20 711.80 L 825.00 679.80 L 832.00 649.00 L 839.00 681.00 L 833.20 713.00 L 826.20 711.80" fill="currentColor"/>
<path d="M 843.77 712.43 C 843.46 712.12 843.14 697.72 843.06 680.43 L 850.96 649.00 L 859.00 647.00 L 851.00 645.00 L 843.00 637.00 L 851.00 629.00 L 859.00 627.91 C 859.00 627.31 858.10 625.67 857.00 624.27 C 855.90 622.87 855.00 620.51 855.00 619.02 L 857.08 614.43 L 863.00 612.55 L 868.92 614.43 L 871.00 619.02 C 871.00 620.51 870.03 622.96 868.85 624.46 L 868.10 628.13 C 868.87 628.64 872.31 628.93 875.75 628.78 L 882.00 636.75 L 873.39 645.00 L 865.39 646.58 C 865.73 647.45 866.00 648.35 866.00 648.58 C 866.00 648.81 869.60 649.00 874.00 649.00 L 882.00 681.00 L 863.17 713.00 C 852.81 713.00 844.08 712.75 843.77 712.43" fill="currentColor"/>
<path d="M 886.65 707.75 C 886.30 704.86 886.01 690.46 886.01 675.75 L 893.00 649.00 L 900.00 679.80 L 898.80 711.80 L 892.44 713.00 L 886.65 707.75" fill="currentColor"/>
<path d="M 634.50 702.55 C 629.66 700.77 626.47 697.29 624.91 692.09 L 624.44 683.56 L 628.12 675.52 C 629.76 673.65 632.72 671.59 634.70 670.94 L 644.08 670.27 C 647.26 670.56 650.34 671.10 650.93 671.46 C 651.52 671.82 651.98 673.78 651.96 675.81 L 650.60 677.11 C 647.90 672.23 641.46 670.68 635.87 673.57 L 631.42 678.53 C 630.64 680.41 630.00 684.02 630.00 686.57 C 630.00 695.51 634.72 701.00 642.42 701.00 L 649.47 697.90 L 653.00 697.37 L 650.02 701.49 C 648.38 702.34 645.11 703.25 642.77 703.53 L 634.50 702.55" fill="currentColor"/>
<path d="M 1378.25 702.74 L 1374.00 698.17 L 1377.17 697.86 L 1384.91 700.80 L 1390.79 697.77 L 1390.97 692.94 L 1383.50 688.00 C 1380.01 686.43 1376.67 684.25 1376.08 683.14 C 1375.48 682.04 1375.00 679.79 1375.00 678.15 L 1378.08 672.59 L 1385.83 670.01 C 1388.40 670.02 1391.51 670.30 1392.75 670.63 L 1395.00 674.21 L 1391.92 674.59 L 1385.62 672.00 C 1383.85 672.00 1381.86 672.54 1381.20 673.20 C 1380.54 673.86 1380.00 675.65 1380.00 677.18 L 1382.25 681.37 C 1383.49 682.15 1386.24 683.39 1388.37 684.13 C 1390.49 684.88 1393.30 686.76 1394.62 688.32 L 1397.00 693.85 C 1397.00 697.51 1394.43 700.92 1390.40 702.61 C 1386.63 704.18 1384.35 704.20 1378.25 702.74" fill="currentColor"/>
<path d="M 288.31 701.20 L 290.00 686.14 L 288.50 672.36 C 287.68 672.05 287.00 671.37 287.00 670.86 L 298.25 670.22 L 309.82 674.00 L 308.03 675.25 L 300.46 673.00 L 295.00 679.00 L 299.44 685.00 C 301.88 685.00 304.16 684.55 304.50 684.00 C 305.74 681.99 306.64 683.08 306.20 686.08 L 304.68 688.08 C 304.08 687.48 301.64 687.00 299.25 687.00 L 295.20 693.75 L 300.82 700.36 L 308.65 697.86 L 310.83 699.00 L 298.56 702.78 L 288.31 701.20" fill="currentColor"/>
<path d="M 327.78 702.33 C 328.48 702.05 331.56 698.44 334.61 694.31 L 335.54 679.85 C 333.00 676.03 330.26 672.66 329.46 672.35 C 326.31 671.14 328.27 670.00 333.50 670.00 C 336.52 670.00 339.00 670.41 339.00 670.92 C 339.00 671.42 338.57 671.98 338.04 672.17 C 337.00 672.53 342.51 682.00 343.75 682.00 C 345.10 681.99 350.04 673.27 349.50 671.85 L 352.98 670.36 C 355.19 670.30 357.00 670.65 357.00 671.13 C 357.00 671.61 356.44 672.02 355.75 672.04 C 355.06 672.06 352.35 674.99 349.72 678.55 L 350.10 692.75 C 352.93 697.01 355.96 701.06 356.82 701.75 L 352.57 703.00 L 347.84 701.69 L 345.73 695.18 C 343.98 692.33 342.08 690.14 341.53 690.32 C 340.98 690.51 339.01 692.77 337.15 695.35 L 335.02 701.52 L 331.37 702.92 C 328.69 702.88 327.08 702.61 327.78 702.33" fill="currentColor"/>
<path d="M 375.80 701.80 L 377.00 686.30 L 376.00 672.00 C 375.45 672.00 375.00 671.49 375.00 670.88 L 384.00 670.19 L 395.75 672.66 C 397.26 673.78 398.91 675.85 399.41 677.26 L 399.02 682.94 C 398.31 684.67 396.77 686.61 395.61 687.26 C 394.45 687.91 391.02 688.68 388.00 688.97 L 382.20 694.63 L 383.52 701.38 L 379.87 703.00 L 375.80 701.80" fill="currentColor"/>
<path d="M 417.25 701.61 L 419.00 686.97 L 417.35 671.83 L 427.35 670.00 L 439.00 673.72 L 437.44 675.22 L 429.94 673.00 L 424.00 679.00 L 428.44 685.00 C 430.88 685.00 433.16 684.55 433.50 684.00 C 434.72 682.02 436.00 683.06 436.00 686.04 L 434.07 688.04 C 433.00 687.47 430.30 687.00 428.07 687.00 L 424.00 693.50 L 430.00 700.00 L 438.00 698.00 C 439.10 696.90 440.13 696.00 440.30 696.00 C 440.46 696.00 440.41 697.58 440.19 699.50 L 427.64 702.97 L 417.25 701.61" fill="currentColor"/>
<path d="M 459.35 701.17 L 461.00 686.50 L 459.35 671.83 L 465.60 670.06 C 469.94 670.09 475.06 670.65 476.97 671.31 L 481.93 675.18 L 482.45 680.65 C 481.91 682.18 479.95 684.46 478.09 685.72 C 476.23 686.97 475.13 688.00 475.64 688.00 C 476.16 688.00 478.09 690.50 479.94 693.54 C 481.79 696.59 484.42 699.97 485.78 701.04 L 484.21 703.00 L 475.40 695.50 L 468.33 688.00 L 466.00 694.14 L 467.75 701.61 L 463.60 702.97 L 459.35 701.17" fill="currentColor"/>
<path d="M 504.25 701.92 L 506.00 686.45 L 505.00 672.00 C 504.45 672.00 504.00 671.55 504.00 671.00 L 509.15 670.00 L 512.65 671.83 L 511.00 686.50 L 512.65 701.17 L 508.40 702.97 L 504.25 701.92" fill="currentColor"/>
<path d="M 533.25 701.61 L 535.00 686.14 L 534.00 672.00 C 533.45 672.00 533.00 671.55 533.00 671.00 L 544.00 670.00 L 555.00 673.15 L 553.25 674.74 L 546.00 672.88 L 540.50 678.55 L 544.38 684.82 C 546.52 684.99 548.74 684.66 549.33 684.07 C 551.15 682.25 552.00 682.87 552.00 686.00 C 552.00 688.95 550.72 689.97 549.50 688.00 C 549.16 687.45 546.88 687.00 544.44 687.00 L 540.00 693.50 L 541.25 700.13 C 541.94 700.21 544.52 700.17 547.00 700.04 L 553.56 697.91 C 554.70 696.86 555.85 696.00 556.11 696.00 C 556.38 696.00 556.41 697.58 556.19 699.50 L 543.64 702.97 L 533.25 701.61" fill="currentColor"/>
<path d="M 575.80 701.80 L 577.00 686.30 L 576.00 672.00 C 575.45 672.00 575.00 671.55 575.00 671.00 C 575.00 670.45 576.77 670.00 578.93 670.00 L 591.18 681.47 C 595.76 687.78 599.74 692.96 600.03 692.97 C 600.31 692.99 600.68 688.78 600.83 683.63 L 599.55 672.70 C 598.70 671.84 598.00 670.89 598.00 670.57 C 598.00 670.26 599.58 670.00 601.50 670.00 C 604.87 670.00 606.08 671.21 604.00 672.50 L 603.00 688.06 L 601.63 703.00 C 600.88 703.00 595.82 696.86 590.38 689.36 L 580.22 687.98 L 581.72 701.58 L 579.05 702.97 L 575.80 701.80" fill="currentColor"/>
<path d="M 672.80 701.80 L 674.00 686.30 L 673.00 672.00 C 672.45 672.00 672.00 671.54 672.00 670.97 L 683.25 670.22 L 694.82 673.25 C 695.18 676.37 694.29 676.78 692.50 674.33 L 686.22 672.58 C 683.44 672.53 680.90 672.77 680.57 673.10 C 680.23 673.43 679.86 676.13 679.73 679.10 L 683.82 684.81 L 689.57 683.94 L 691.00 686.08 L 689.80 688.20 C 689.14 687.54 686.73 687.00 684.44 687.00 L 679.64 692.42 C 679.29 695.40 679.30 698.61 679.66 699.54 L 685.78 700.68 L 693.62 697.89 L 695.99 697.08 C 695.98 697.86 695.70 699.51 695.37 700.75 L 683.18 703.00 L 672.80 701.80" fill="currentColor"/>
<path d="M 1044.25 701.92 L 1046.00 686.95 L 1042.54 673.00 L 1037.04 675.19 L 1035.00 673.66 L 1048.75 670.22 L 1062.82 674.00 L 1061.03 675.25 L 1054.96 673.00 L 1051.00 686.17 L 1052.65 701.17 L 1048.40 702.97 L 1044.25 701.92" fill="currentColor"/>
<path d="M 1082.25 701.92 L 1084.00 686.45 L 1083.00 672.00 C 1082.45 672.00 1082.00 671.55 1082.00 671.00 L 1087.00 670.00 L 1092.00 671.00 C 1092.00 671.55 1091.55 672.00 1091.00 672.00 L 1090.00 678.54 L 1097.75 684.79 L 1105.81 679.11 L 1105.06 672.66 C 1103.09 670.69 1103.98 670.00 1108.50 670.00 L 1113.00 671.00 C 1113.00 671.55 1112.55 672.00 1112.00 672.00 L 1111.00 686.45 L 1112.75 701.92 L 1108.50 702.94 L 1104.25 701.92 L 1106.00 693.95 L 1098.00 687.00 L 1090.00 693.80 L 1091.20 701.80 L 1086.45 702.97 L 1082.25 701.92" fill="currentColor"/>
<path d="M 1134.98 701.53 L 1136.06 686.28 L 1134.96 672.17 C 1134.43 671.98 1134.00 671.42 1134.00 670.92 L 1145.50 670.00 L 1157.00 673.06 L 1154.78 674.56 L 1147.28 673.00 L 1142.00 679.00 L 1146.44 685.00 C 1148.88 685.00 1151.16 684.55 1151.50 684.00 C 1152.64 682.15 1153.52 682.98 1153.64 686.00 C 1153.76 688.96 1152.70 689.95 1151.50 688.00 C 1151.16 687.45 1148.86 687.00 1146.40 687.00 L 1142.20 693.75 L 1147.11 700.80 L 1154.76 698.55 C 1156.43 697.15 1157.97 696.00 1158.19 696.00 C 1158.42 696.00 1158.41 697.58 1158.19 699.50 L 1145.77 703.00 L 1134.98 701.53" fill="currentColor"/>
<path d="M 1205.35 701.17 L 1207.00 686.50 L 1205.31 671.80 L 1215.56 670.22 L 1227.82 673.25 C 1228.16 676.28 1226.93 676.83 1225.00 674.50 L 1217.88 673.00 L 1212.00 679.00 L 1216.44 685.00 C 1218.88 685.00 1221.16 684.55 1221.50 684.00 C 1222.72 682.03 1224.00 683.05 1224.00 686.00 C 1224.00 688.95 1222.72 689.97 1221.50 688.00 C 1221.16 687.45 1218.88 687.00 1216.44 687.00 L 1212.00 693.95 L 1213.75 701.92 L 1209.60 702.97 L 1205.35 701.17" fill="currentColor"/>
<path d="M 1248.25 701.61 L 1250.00 686.70 L 1249.00 672.50 C 1246.73 671.10 1248.27 670.00 1252.50 670.00 C 1256.73 670.00 1258.27 671.10 1256.00 672.50 L 1255.00 687.01 L 1256.75 701.92 L 1252.50 702.94 L 1248.25 701.61" fill="currentColor"/>
<path d="M 1279.25 701.61 L 1281.00 686.61 L 1279.50 672.36 C 1278.67 672.05 1278.00 671.36 1278.00 670.84 L 1282.25 670.19 L 1295.00 681.81 L 1303.79 682.82 L 1303.04 672.18 C 1300.67 671.39 1302.25 670.00 1305.50 670.00 C 1307.42 670.00 1309.00 670.45 1309.00 671.00 C 1309.00 671.55 1308.55 672.00 1308.00 672.00 L 1307.00 687.57 L 1305.25 702.81 C 1304.29 702.63 1299.23 696.72 1294.00 689.69 L 1284.22 688.69 L 1285.66 701.74 L 1282.44 702.97 L 1279.25 701.61" fill="currentColor"/>
<path d="M 1330.80 701.80 L 1332.00 686.30 L 1331.00 672.00 C 1330.45 672.00 1330.00 671.55 1330.00 671.00 L 1341.50 670.00 L 1353.00 673.15 L 1351.17 674.65 L 1343.67 673.00 L 1338.00 679.00 L 1342.44 685.00 C 1344.88 685.00 1347.16 684.55 1347.50 684.00 C 1348.72 682.02 1350.00 683.06 1350.00 686.04 L 1348.07 688.04 C 1347.00 687.47 1344.28 687.00 1342.02 687.00 L 1338.20 693.75 L 1343.55 700.80 L 1351.42 698.49 C 1352.96 697.06 1354.34 696.03 1354.49 696.19 C 1354.64 696.36 1354.54 697.96 1354.27 699.75 L 1341.69 703.00 L 1330.80 701.80" fill="currentColor"/>
<path d="M 1424.25 701.92 L 1426.00 687.12 C 1426.00 679.54 1425.75 673.09 1425.45 672.78 C 1424.40 671.74 1417.55 673.90 1416.21 675.70 L 1415.18 674.00 L 1429.00 670.50 L 1442.82 673.25 C 1443.15 676.16 1441.61 677.04 1440.64 674.50 L 1435.49 673.00 L 1431.37 686.69 L 1433.60 701.69 L 1428.94 702.97 L 1424.25 701.92" fill="currentColor"/>
<path d="M 389.93 686.54 C 393.00 684.95 394.00 683.19 394.00 679.37 L 391.48 674.39 L 385.73 672.19 L 382.20 678.89 C 382.03 682.41 382.13 685.90 382.42 686.64 C 383.10 688.42 386.39 688.37 389.93 686.54" fill="currentColor"/>
<path d="M 474.78 684.44 L 477.00 679.48 L 474.81 674.04 L 469.31 672.00 L 466.00 679.00 L 469.28 686.00 C 471.08 686.00 473.56 685.30 474.78 684.44" fill="currentColor"/>
<path d="M 868.58 660.65 C 870.54 657.99 871.95 655.61 871.71 655.38 C 870.43 654.10 867.64 656.89 865.36 661.71 L 860.89 664.35 C 859.86 662.78 859.00 660.83 858.98 660.00 C 858.94 658.45 854.22 654.44 853.40 655.26 C 852.99 655.67 858.50 664.45 861.31 667.87 L 863.73 667.37 C 864.45 666.34 866.63 663.32 868.58 660.65" fill="currentColor"/>
<path d="M 825.00 638.12 L 826.25 630.22 C 826.94 629.66 830.09 629.04 833.25 628.85 L 839.00 636.75 L 832.00 645.00 L 825.00 638.12" fill="currentColor"/>
<path d="M 886.00 637.00 L 891.80 629.00 L 898.80 630.20 L 900.00 638.20 L 893.00 645.00 L 886.00 637.00" fill="currentColor"/>
<path d="M 1005.35 635.75 C 1005.09 635.34 1112.57 635.11 1244.19 635.24 C 1375.81 635.38 1444.80 635.60 1397.50 635.74 C 1167.97 636.43 1005.76 636.43 1005.35 635.75" fill="currentColor"/>
<path d="M 370.25 635.25 C 436.11 635.11 543.89 635.11 609.75 635.25 C 675.61 635.39 621.73 635.51 490.00 635.51 C 358.27 635.51 304.39 635.39 370.25 635.25" fill="currentColor"/>
<path d="M 864.39 622.42 C 865.27 620.12 865.20 620.00 863.00 620.00 C 861.90 620.00 861.00 620.19 861.00 620.42 C 861.00 621.64 862.32 624.00 863.00 624.00 C 863.43 624.00 864.06 623.29 864.39 622.42" fill="currentColor"/>
<path d="M 292.64 559.91 C 287.22 559.46 282.27 558.88 281.64 558.63 C 281.01 558.37 286.38 558.12 293.56 558.08 C 308.43 557.99 325.12 556.03 337.22 552.95 C 356.93 547.94 378.71 537.12 397.52 522.99 C 410.51 513.24 426.90 497.41 439.00 482.92 C 444.32 476.55 457.59 459.45 468.50 444.92 C 488.96 417.66 502.22 400.82 516.85 383.50 C 529.13 368.97 565.71 332.83 578.50 322.60 C 584.55 317.76 595.80 309.63 603.50 304.53 C 647.98 275.08 694.79 254.74 762.35 235.52 C 773.27 232.42 782.38 230.05 782.59 230.26 C 782.80 230.47 780.39 231.44 777.24 232.40 C 754.75 239.31 718.68 254.18 691.50 267.75 C 669.85 278.56 652.31 288.74 634.00 301.11 C 593.42 328.54 564.58 356.97 522.51 411.00 C 470.90 477.30 451.11 498.98 422.76 520.29 C 399.43 537.84 374.81 549.78 348.08 556.52 C 338.27 559.00 321.52 560.97 311.50 560.84 C 306.55 560.77 298.06 560.35 292.64 559.91" fill="currentColor"/>
<path d="M 699.10 522.39 C 694.47 521.61 686.00 519.41 680.26 517.49 C 652.29 508.13 625.86 488.72 611.64 467.11 C 605.13 457.22 599.63 445.43 596.43 434.50 L 593.35 411.50 L 594.84 390.00 L 596.89 385.75 C 597.01 389.19 597.83 389.77 599.80 387.80 C 601.47 386.13 601.31 386.99 599.06 391.63 C 598.00 393.83 596.82 396.95 596.44 398.57 L 596.75 400.50 C 597.30 399.95 599.02 396.57 600.58 393.00 C 602.14 389.43 604.89 384.52 606.70 382.11 C 608.52 379.69 610.00 377.01 610.00 376.16 L 610.94 375.55 C 611.84 376.46 614.25 386.25 616.02 396.15 C 617.20 402.80 619.25 406.20 624.41 410.09 C 626.90 411.97 629.66 415.00 630.55 416.83 L 633.61 419.59 C 634.41 419.29 637.74 418.35 641.00 417.50 C 644.26 416.65 647.63 415.70 648.47 415.37 L 650.00 417.72 C 650.00 420.46 646.15 433.12 644.32 436.38 C 643.87 437.19 641.57 439.25 639.22 440.96 C 634.04 444.71 631.01 449.40 631.00 453.67 C 631.00 458.01 634.11 464.90 639.49 472.43 C 641.97 475.91 644.00 479.42 644.00 480.24 C 644.00 481.06 643.07 482.91 641.94 484.35 L 643.39 490.04 L 646.40 494.39 L 649.80 498.25 C 664.97 508.29 684.17 515.72 703.09 518.88 L 727.00 520.48 L 749.50 517.99 C 760.92 515.50 774.53 510.51 784.00 505.35 C 787.58 503.40 793.71 499.41 797.63 496.47 L 805.43 487.51 L 809.63 479.99 L 817.57 475.44 L 825.50 470.00 C 827.42 467.38 829.00 464.95 829.00 464.62 C 829.00 464.28 828.33 464.00 827.52 464.00 L 828.08 460.36 L 827.23 457.30 L 824.33 456.44 C 824.33 455.64 824.82 455.04 825.42 455.11 C 826.01 455.18 827.32 455.18 828.33 455.12 L 829.53 452.13 L 831.40 448.77 C 832.77 448.51 834.33 448.73 834.86 449.26 C 835.39 449.79 836.29 449.94 836.85 449.59 C 838.70 448.45 843.85 433.53 845.95 423.27 L 848.00 403.46 L 845.40 382.16 C 841.21 363.47 833.07 346.67 820.85 331.47 C 817.51 327.32 812.41 321.88 809.52 319.38 C 804.22 314.81 793.71 308.00 791.95 308.00 C 791.43 308.00 791.00 308.68 791.00 309.50 L 788.50 311.00 C 787.12 311.00 786.00 311.39 786.00 311.87 C 786.00 312.34 786.95 313.93 788.10 315.40 L 792.04 317.49 L 797.90 320.53 C 800.11 322.53 803.06 326.20 804.45 328.69 L 806.38 337.05 C 806.04 339.16 805.14 341.12 804.38 341.41 C 802.43 342.16 802.67 344.88 804.86 346.84 C 807.51 349.20 812.18 357.77 811.16 358.40 C 809.93 359.16 805.48 354.22 802.69 348.99 L 798.39 344.80 C 795.56 345.25 794.70 345.21 792.39 344.49 L 789.68 346.12 C 789.35 347.37 789.57 348.99 790.17 349.71 L 792.63 349.89 L 796.54 350.44 L 798.52 353.92 L 800.47 357.39 C 801.86 358.30 803.01 359.60 803.02 360.27 C 803.03 360.95 804.14 362.55 805.49 363.82 C 808.31 366.50 809.51 371.46 808.56 376.52 L 804.70 383.69 L 796.37 389.60 L 789.11 391.32 L 785.49 392.00 C 784.67 392.69 784.00 394.34 784.00 395.68 L 786.95 400.81 C 788.57 402.29 790.62 405.24 791.51 407.38 L 792.48 415.14 L 787.56 421.96 L 783.77 422.45 L 782.92 420.00 C 782.21 420.00 779.94 418.20 777.89 416.00 C 775.83 413.80 773.72 412.00 773.18 412.00 C 772.64 412.00 771.88 414.71 771.50 418.02 L 772.39 426.48 C 773.27 427.82 774.90 429.76 776.01 430.79 C 777.86 432.52 781.38 442.96 780.42 443.91 C 779.44 444.89 775.93 440.38 774.37 436.13 C 773.44 433.58 771.60 430.04 770.29 428.26 L 768.92 423.14 L 768.92 414.98 C 768.36 411.52 767.48 407.89 766.95 406.91 C 766.43 405.93 766.00 404.20 766.00 403.07 C 766.00 401.93 765.77 401.00 765.50 401.00 C 765.23 401.00 764.07 401.93 762.94 403.06 C 761.80 404.20 760.39 404.96 759.81 404.77 C 759.22 404.57 758.62 402.94 758.48 401.14 L 755.11 393.99 L 752.00 387.06 C 752.00 385.38 751.55 384.00 751.00 384.00 C 750.45 384.00 750.00 384.85 750.00 385.88 L 747.75 388.37 C 746.51 388.70 744.49 388.98 743.25 388.99 C 742.01 388.99 741.00 389.42 741.00 389.93 C 741.00 390.43 737.08 394.33 732.30 398.59 L 723.88 410.19 L 722.11 418.27 C 720.98 420.60 719.17 423.05 718.09 423.72 L 713.45 419.22 C 711.99 416.07 709.49 410.49 707.89 406.80 L 705.00 393.55 C 705.00 389.95 704.64 387.00 704.20 387.00 C 703.76 387.00 702.91 387.49 702.32 388.08 C 701.02 389.38 696.52 388.93 696.45 387.50 C 696.43 386.95 695.43 384.63 694.24 382.35 L 689.78 378.18 C 688.53 378.16 683.04 377.73 677.60 377.23 L 666.42 374.56 L 662.32 373.42 L 656.37 372.10 C 654.65 371.04 652.63 368.79 651.88 367.09 C 650.46 363.88 649.46 363.42 647.12 364.91 L 646.37 369.14 L 650.25 375.73 C 652.04 377.51 654.30 379.69 655.28 380.58 L 660.53 379.55 L 664.00 378.35 C 664.00 379.15 665.62 380.76 667.60 381.93 L 670.53 386.75 C 669.43 391.13 663.78 399.06 660.52 400.80 C 658.86 401.69 657.27 402.44 657.00 402.46 C 656.73 402.48 655.11 403.49 653.42 404.70 C 650.82 406.55 634.95 413.00 632.99 413.00 C 631.91 413.00 629.00 406.04 629.00 403.47 L 625.68 397.25 L 621.13 386.60 C 620.45 382.80 619.24 378.44 618.45 376.90 C 617.65 375.36 617.00 373.18 617.00 372.05 C 617.00 369.48 615.24 369.43 612.56 371.93 L 608.52 372.40 L 607.64 369.22 C 608.25 368.28 609.59 367.62 610.62 367.77 L 615.00 365.46 C 616.38 364.05 619.02 361.40 620.87 359.57 L 630.32 355.62 L 637.39 355.99 C 638.81 357.41 640.00 357.24 640.00 355.64 C 640.00 354.89 641.12 352.62 642.50 350.60 C 643.88 348.57 645.00 346.67 645.00 346.38 C 645.00 346.09 643.09 345.97 640.75 346.13 L 636.69 343.71 C 636.79 342.22 636.47 341.00 635.96 341.00 C 635.46 341.00 633.57 341.90 631.77 343.00 C 629.97 344.09 627.66 344.99 626.63 345.00 L 625.29 343.00 C 626.02 340.22 624.25 339.46 621.93 341.56 L 621.59 345.10 L 621.41 350.94 C 620.42 353.17 619.26 355.00 618.83 355.00 C 618.40 355.00 618.32 353.65 618.65 352.00 C 618.98 350.35 618.93 349.00 618.53 349.00 C 618.14 349.00 616.67 349.90 615.27 351.00 C 613.87 352.10 612.31 353.00 611.80 353.00 C 610.19 353.00 614.86 345.80 621.86 337.50 C 628.24 329.94 630.84 328.29 630.17 332.25 C 629.82 334.32 630.38 334.41 633.32 332.80 C 634.52 332.14 636.56 331.73 637.85 331.88 L 642.60 329.91 C 645.35 327.32 645.66 326.00 643.50 326.00 C 641.56 326.00 641.60 325.10 643.66 322.82 C 644.57 321.81 645.08 320.75 644.79 320.45 C 644.50 320.16 642.34 320.58 640.00 321.39 L 639.10 319.39 C 643.57 314.78 654.87 307.07 663.50 302.74 C 669.46 299.75 673.49 298.33 687.30 294.35 L 688.80 291.79 L 693.00 288.37 C 701.23 285.86 715.37 284.01 726.38 284.00 C 746.97 284.00 766.40 288.56 784.36 297.63 C 802.50 306.78 816.54 318.23 827.46 332.79 C 838.18 347.07 846.82 366.90 849.93 384.37 C 850.51 387.60 851.26 394.35 851.61 399.37 L 851.04 416.50 C 848.28 434.99 843.69 448.54 835.37 462.72 C 826.58 477.70 815.11 489.78 799.18 500.83 C 784.40 511.09 768.95 517.61 750.00 521.58 L 723.00 523.89 L 699.10 522.39" fill="currentColor"/>
<path d="M 251.00 519.38 C 249.62 519.17 245.12 518.51 241.00 517.92 C 230.04 516.35 211.55 511.59 202.44 508.00 C 189.74 502.98 174.22 494.39 164.35 486.90 C 153.45 478.65 140.47 465.25 133.36 454.95 C 122.89 439.75 114.30 419.66 110.32 401.00 L 108.52 374.00 L 111.22 345.40 C 112.70 339.85 115.03 332.30 116.41 328.64 C 123.14 310.77 135.97 291.14 150.08 277.14 C 165.53 261.83 186.22 248.53 206.50 240.90 C 220.26 235.72 232.71 232.54 246.98 230.55 L 273.31 229.00 C 308.91 229.00 337.37 235.97 368.50 252.32 L 380.77 280.81 C 380.92 293.02 380.69 302.99 380.27 302.99 C 379.85 302.98 378.21 299.79 376.63 295.89 L 367.74 280.81 C 360.90 271.73 349.68 261.70 339.77 255.81 C 330.67 250.39 314.48 244.16 303.52 241.86 C 298.56 240.82 288.65 239.70 281.50 239.38 L 258.03 240.41 C 243.94 242.57 232.69 246.12 219.50 252.56 C 195.11 264.48 175.65 283.84 163.25 308.51 C 158.01 318.92 152.33 336.94 150.34 349.48 L 149.30 377.48 L 151.52 403.00 C 153.85 413.56 158.59 428.00 162.64 436.88 C 164.54 441.04 168.95 448.74 172.45 453.99 L 187.23 472.03 C 191.87 476.70 199.11 482.90 203.33 485.82 C 207.54 488.73 216.11 493.57 222.36 496.58 L 243.48 504.52 C 248.85 505.88 258.33 507.53 264.55 508.18 L 288.18 508.24 L 312.19 504.14 C 324.91 500.91 340.71 494.44 346.93 489.93 L 351.67 482.29 C 352.11 479.66 352.43 461.73 352.38 442.46 L 350.23 402.78 L 344.09 395.18 L 332.25 390.21 C 327.99 389.11 322.02 387.77 319.00 387.23 L 365.42 386.13 C 393.97 386.06 417.09 386.24 416.80 386.53 C 416.51 386.82 413.85 387.46 410.89 387.94 C 407.92 388.43 402.88 389.81 399.69 391.01 L 390.48 396.59 L 385.54 405.17 L 384.00 449.67 L 370.23 495.88 C 347.29 507.38 324.02 514.94 301.00 518.38 L 272.50 519.78 C 262.05 519.77 252.38 519.59 251.00 519.38" fill="currentColor"/>
<path d="M 658.00 499.71 C 658.00 499.00 657.10 496.66 656.00 494.50 C 654.90 492.34 654.00 489.77 654.00 488.79 C 654.00 487.80 653.10 486.10 652.00 485.00 C 649.48 482.48 649.44 480.31 651.91 479.53 C 652.96 479.19 654.56 477.80 655.45 476.43 C 656.35 475.06 657.48 474.18 657.97 474.48 C 659.53 475.45 662.93 487.33 663.61 494.25 L 661.14 501.00 L 658.00 499.71" fill="currentColor"/>
<path d="M 1348.00 487.30 C 1341.35 486.14 1330.57 482.44 1321.75 478.27 L 1312.00 455.77 L 1313.00 438.50 C 1313.55 438.84 1314.00 439.89 1314.00 440.84 C 1314.00 443.99 1320.66 456.43 1325.44 462.20 C 1330.87 468.76 1341.04 476.06 1349.00 479.12 L 1363.21 481.75 L 1379.05 479.98 L 1391.56 472.77 L 1400.23 461.19 L 1403.41 445.01 L 1400.64 429.57 L 1389.70 415.57 L 1367.48 398.10 C 1344.49 382.63 1337.62 377.42 1331.27 370.63 C 1325.00 363.93 1320.80 356.45 1319.06 348.89 C 1318.50 346.47 1318.04 341.28 1318.02 337.34 L 1319.88 324.12 C 1322.47 315.80 1325.86 310.37 1332.17 304.40 L 1344.02 296.28 C 1347.58 294.60 1352.97 292.63 1356.00 291.90 L 1372.50 290.69 L 1391.03 292.82 C 1395.17 293.91 1402.26 296.23 1406.78 297.98 L 1415.00 316.77 L 1414.12 331.45 C 1413.64 330.93 1412.69 328.70 1412.01 326.50 C 1410.18 320.57 1405.63 313.89 1399.47 308.06 L 1388.28 300.27 L 1372.53 297.23 L 1356.80 298.95 L 1346.18 305.52 L 1338.97 315.22 L 1336.62 328.50 L 1339.35 342.60 L 1347.82 354.25 C 1350.94 357.30 1361.38 365.08 1371.00 371.55 C 1380.62 378.01 1391.89 385.88 1396.03 389.03 C 1405.30 396.08 1413.61 404.95 1417.27 411.73 C 1420.52 417.72 1424.01 430.56 1423.98 436.41 C 1423.96 442.10 1420.85 453.44 1417.51 459.99 L 1407.96 472.25 L 1394.85 481.97 C 1391.36 483.59 1385.82 485.62 1382.54 486.46 L 1363.54 487.86 C 1356.37 487.79 1349.38 487.53 1348.00 487.30" fill="currentColor"/>
<path d="M 1050.45 485.76 C 1043.87 484.93 1033.65 480.48 1027.95 475.96 C 1022.70 471.80 1016.37 463.63 1002.43 443.00 C 995.93 433.38 986.64 419.65 981.80 412.50 C 976.95 405.35 971.63 398.09 969.96 396.36 L 962.52 392.11 C 960.10 391.50 954.26 391.00 949.56 391.00 L 941.00 388.62 L 956.25 385.73 L 979.00 383.05 C 983.12 381.85 988.60 379.52 991.17 377.88 C 997.17 374.04 1003.76 365.29 1006.87 357.02 L 1009.40 340.50 L 1007.65 325.24 C 1006.65 322.34 1004.06 317.32 1001.89 314.08 L 993.14 305.09 C 990.49 303.39 984.77 301.04 980.41 299.85 L 955.79 297.60 L 937.35 299.22 L 935.81 386.18 L 937.06 474.68 C 938.42 478.79 942.94 482.64 948.05 484.01 C 950.22 484.60 952.00 485.19 952.00 485.33 C 952.00 485.47 939.40 485.57 924.00 485.54 C 908.60 485.52 896.00 485.40 896.00 485.29 C 896.00 485.17 897.78 484.60 899.95 484.01 C 904.92 482.68 909.86 478.58 911.64 474.33 L 913.00 388.35 L 910.94 301.38 L 905.38 295.06 C 903.46 293.93 901.12 292.91 900.19 292.81 C 899.26 292.70 915.38 292.34 936.00 292.00 L 983.50 292.64 C 989.00 293.33 997.04 295.10 1001.36 296.58 L 1015.33 303.88 C 1022.45 309.27 1028.43 317.33 1030.52 324.38 L 1032.00 338.52 L 1030.07 353.30 C 1027.23 361.55 1023.68 367.05 1017.18 373.24 C 1010.85 379.28 1005.10 382.54 994.75 385.94 C 988.19 388.10 986.86 389.18 989.08 390.55 C 991.40 391.99 1007.18 412.71 1024.39 436.94 C 1034.33 450.94 1044.95 465.08 1047.98 468.36 C 1054.64 475.58 1063.50 481.51 1070.78 483.62 C 1073.73 484.48 1075.97 485.37 1075.74 485.59 C 1074.97 486.37 1056.20 486.50 1050.45 485.76" fill="currentColor"/>
<path d="M 1088.71 485.01 C 1089.14 484.63 1091.55 483.58 1094.06 482.66 L 1102.34 477.17 L 1134.37 407.42 C 1149.94 371.17 1167.32 330.36 1173.00 316.75 C 1178.67 303.14 1183.63 292.00 1184.02 292.00 C 1184.98 292.00 1188.03 299.02 1207.50 346.00 C 1212.32 357.64 1221.57 379.41 1248.31 442.09 C 1254.08 455.61 1259.96 468.95 1261.37 471.74 C 1264.37 477.67 1269.97 482.64 1275.25 484.06 C 1277.31 484.62 1279.00 485.26 1279.00 485.47 C 1279.00 485.69 1267.08 485.79 1252.50 485.69 C 1237.93 485.58 1226.00 485.41 1226.00 485.30 C 1226.00 485.19 1227.99 484.21 1230.41 483.14 C 1232.84 482.07 1235.37 480.18 1236.03 478.95 L 1236.72 472.98 C 1236.45 470.93 1229.92 454.46 1222.22 436.38 C 1214.51 418.30 1202.48 390.00 1195.49 373.50 C 1177.87 331.93 1177.23 330.48 1176.39 330.67 C 1175.68 330.84 1172.76 337.50 1158.07 372.50 C 1154.61 380.75 1145.56 402.12 1137.97 420.00 C 1117.40 468.43 1117.44 468.31 1117.84 475.10 C 1118.05 478.54 1122.18 482.89 1125.97 483.64 C 1127.64 483.98 1129.00 484.53 1129.00 484.88 C 1129.00 485.22 1119.75 485.54 1108.46 485.59 C 1097.16 485.64 1088.28 485.38 1088.71 485.01" fill="currentColor"/>
<path d="M 1446.55 484.92 C 1446.79 484.54 1448.22 483.92 1449.74 483.55 C 1454.21 482.46 1459.65 478.37 1462.74 473.78 C 1464.33 471.43 1467.69 464.77 1470.21 459.00 C 1475.30 447.33 1499.97 387.68 1522.51 332.50 C 1530.59 312.70 1537.80 295.38 1538.53 294.00 L 1541.75 296.00 C 1542.79 298.48 1546.05 306.35 1548.98 313.50 C 1551.91 320.65 1557.78 334.82 1562.03 345.00 C 1566.28 355.18 1573.01 371.38 1576.99 381.00 C 1602.67 443.15 1611.61 464.30 1614.75 470.30 L 1621.83 480.01 C 1623.77 481.61 1626.62 483.20 1628.17 483.54 C 1629.71 483.88 1631.16 484.46 1631.39 484.83 C 1631.62 485.20 1620.15 485.53 1605.90 485.56 C 1591.66 485.59 1580.00 485.31 1580.00 484.93 C 1580.00 484.56 1581.36 483.98 1583.03 483.64 C 1584.69 483.31 1587.16 481.93 1588.53 480.57 L 1591.00 474.47 L 1581.55 447.68 C 1576.35 434.93 1566.43 410.77 1559.50 394.00 C 1552.56 377.23 1544.42 357.48 1541.41 350.13 C 1535.24 335.08 1533.27 330.99 1532.22 331.02 C 1531.83 331.03 1530.42 333.61 1529.10 336.77 C 1523.01 351.35 1521.97 353.88 1519.71 359.50 C 1518.39 362.80 1511.01 381.02 1503.32 400.00 C 1480.40 456.52 1475.00 470.50 1475.00 473.27 C 1475.00 474.72 1475.55 477.12 1476.23 478.61 L 1482.48 483.55 L 1466.81 485.70 C 1455.42 485.66 1446.31 485.31 1446.55 484.92" fill="currentColor"/>
<path d="M 809.50 470.00 L 809.19 469.07 C 810.12 469.03 811.16 469.45 811.50 470.00 C 812.21 471.15 812.18 471.15 809.50 470.00" fill="currentColor"/>
<path d="M 816.73 469.88 C 817.41 469.19 818.22 468.89 818.53 469.19 C 818.83 469.50 818.28 470.06 817.29 470.44 L 816.73 469.88" fill="currentColor"/>
<path d="M 797.50 469.27 C 795.30 469.05 793.07 468.45 792.55 467.93 C 792.03 467.42 790.12 467.00 788.30 467.00 C 786.49 467.00 785.00 466.60 785.00 466.11 C 785.00 464.62 788.03 463.94 789.99 464.99 C 791.01 465.54 793.11 465.76 794.67 465.48 L 800.50 467.49 C 802.15 468.86 803.05 469.92 802.50 469.83 C 801.95 469.74 799.70 469.48 797.50 469.27" fill="currentColor"/>
<path d="M 778.64 462.93 C 775.61 460.55 773.08 455.96 770.58 448.32 C 769.65 445.47 767.34 441.19 765.45 438.82 C 762.19 434.71 761.11 431.99 762.75 432.01 C 765.29 432.03 776.17 442.75 781.80 450.78 L 783.80 459.20 C 783.64 462.03 783.01 464.50 782.42 464.70 C 781.82 464.89 780.12 464.10 778.64 462.93" fill="currentColor"/>
<path d="M 815.00 458.70 C 815.00 457.21 814.55 456.00 814.00 456.00 C 813.45 456.00 813.00 456.65 813.00 457.44 C 813.00 458.23 812.49 459.20 811.86 459.59 L 811.43 456.39 C 811.81 454.25 812.62 450.81 813.22 448.75 L 818.41 445.12 L 820.50 445.72 C 816.31 446.74 812.91 452.00 816.44 452.00 L 817.31 455.75 C 816.99 457.81 816.35 459.93 815.87 460.45 L 815.00 458.70" fill="currentColor"/>
<path d="M 802.46 458.75 L 798.62 457.00 L 793.80 453.75 C 792.88 451.96 791.84 449.47 791.49 448.20 L 792.04 444.45 C 792.70 443.65 794.30 443.00 795.59 443.00 L 798.96 441.07 C 799.53 440.00 800.79 438.88 801.75 438.57 C 802.71 438.26 804.60 436.39 805.93 434.42 L 810.11 433.15 L 810.82 436.72 C 810.25 437.41 810.05 439.04 810.37 440.35 C 811.13 443.35 808.78 451.28 805.58 456.50 L 802.46 458.75" fill="currentColor"/>
<path d="M 1487.00 455.17 C 1487.00 454.61 1490.04 451.42 1493.75 448.06 L 1508.50 438.03 C 1512.90 435.86 1518.53 433.63 1521.00 433.07 C 1527.58 431.58 1539.74 431.78 1546.30 433.49 C 1549.44 434.31 1554.71 436.34 1558.00 438.00 L 1571.02 447.65 C 1574.88 451.30 1577.88 454.46 1577.67 454.66 C 1577.46 454.87 1574.55 453.21 1571.19 450.97 C 1555.67 440.61 1536.36 436.77 1518.50 440.50 L 1502.31 446.49 C 1497.26 448.99 1491.74 452.19 1490.06 453.60 C 1488.38 455.02 1487.00 455.72 1487.00 455.17" fill="currentColor"/>
<path d="M 827.00 446.00 C 827.00 445.27 827.30 444.97 827.67 445.33 C 828.03 445.70 828.03 446.30 827.67 446.67 C 827.30 447.03 827.00 446.73 827.00 446.00" fill="currentColor"/>
<path d="M 723.52 431.66 L 723.24 426.19 C 723.90 424.42 724.91 423.13 725.47 423.31 C 727.15 423.86 729.17 428.89 728.52 430.92 C 728.19 431.96 727.27 433.07 726.46 433.38 L 723.52 431.66" fill="currentColor"/>
<path d="M 823.58 429.69 L 821.40 428.40 L 820.67 425.71 C 821.44 421.54 822.40 420.57 823.91 422.39 L 824.77 427.68 L 823.58 429.69" fill="currentColor"/>
<path d="M 818.00 420.50 C 818.00 419.68 818.18 419.00 818.39 419.00 C 818.61 419.00 819.05 419.68 819.36 420.50 C 819.68 421.32 819.50 422.00 818.97 422.00 C 818.44 422.00 818.00 421.32 818.00 420.50" fill="currentColor"/>
<path d="M 821.08 417.71 C 820.00 414.87 817.41 412.63 816.12 413.42 L 814.07 410.70 C 813.11 407.80 812.78 398.00 813.64 398.00 C 813.81 398.00 814.66 399.38 815.54 401.07 L 816.53 406.86 L 819.47 412.70 L 823.00 417.91 C 823.00 420.65 822.16 420.56 821.08 417.71" fill="currentColor"/>
<path d="M 790.00 396.50 C 790.00 395.68 790.45 395.00 791.00 395.00 C 791.55 395.00 792.00 395.68 792.00 396.50 C 792.00 397.32 791.55 398.00 791.00 398.00 C 790.45 398.00 790.00 397.32 790.00 396.50" fill="currentColor"/>
<path d="M 811.73 389.40 C 811.33 388.99 811.01 387.73 811.03 386.58 L 812.10 386.29 C 813.22 388.21 812.93 390.60 811.73 389.40" fill="currentColor"/>
<path d="M 694.67 374.33 C 694.30 373.97 693.70 373.97 693.33 374.33 C 692.97 374.70 693.27 375.00 694.00 375.00 C 694.73 375.00 695.03 374.70 694.67 374.33" fill="currentColor"/>
<path d="M 744.81 374.15 C 748.86 373.01 747.67 371.85 742.05 371.46 L 730.05 367.79 L 721.50 360.29 C 720.40 357.97 718.96 356.06 718.30 356.04 L 718.48 360.59 C 719.24 363.12 720.61 366.01 721.52 367.02 C 723.71 369.44 729.31 372.07 735.50 373.60 C 741.22 375.01 741.67 375.03 744.81 374.15" fill="currentColor"/>
<path d="M 756.67 373.33 C 756.30 372.97 756.00 373.27 756.00 374.00 C 756.00 374.73 756.30 375.03 756.67 374.67 C 757.03 374.30 757.03 373.70 756.67 373.33" fill="currentColor"/>
<path d="M 600.05 373.25 C 600.07 372.84 601.17 370.48 602.50 368.00 L 604.95 365.19 C 604.98 366.12 604.06 368.49 602.90 370.44 C 600.86 373.90 599.95 374.79 600.05 373.25" fill="currentColor"/>
<path d="M 814.98 361.43 C 814.44 360.02 814.00 358.63 814.00 358.35 C 814.00 358.06 814.92 357.07 816.04 356.16 L 819.36 349.50 L 823.38 349.20 L 825.03 355.94 C 824.43 357.06 822.60 358.67 820.97 359.52 C 819.34 360.36 818.00 361.71 818.00 362.53 C 818.00 364.92 816.03 364.21 814.98 361.43" fill="currentColor"/>
<path d="M 664.87 345.43 C 665.07 345.25 664.78 343.81 664.23 342.23 L 664.20 337.60 L 663.51 334.01 L 664.42 330.46 C 665.84 329.53 667.00 328.19 667.00 327.47 L 671.00 325.50 C 673.20 325.13 675.00 324.45 675.00 323.99 C 675.00 322.70 671.88 322.32 668.08 323.13 L 660.23 328.29 L 657.14 334.86 L 657.24 338.99 C 655.66 341.52 655.66 344.26 657.23 345.83 L 661.48 346.41 C 663.14 346.06 664.66 345.62 664.87 345.43" fill="currentColor"/>
<path d="M 816.13 337.50 C 814.41 335.54 813.00 333.71 813.00 333.43 C 813.00 332.25 817.14 335.29 818.64 337.57 C 821.20 341.48 819.59 341.44 816.13 337.50" fill="currentColor"/>
<path d="M 802.79 323.00 C 800.75 320.25 799.24 318.00 799.44 318.00 C 799.65 318.00 801.70 320.25 804.00 323.00 C 806.30 325.75 807.81 328.00 807.34 328.00 C 806.88 328.00 804.83 325.75 802.79 323.00" fill="currentColor"/>
<path d="M 1613.45 324.67 C 1613.22 324.03 1612.91 319.00 1612.77 313.50 L 1608.75 303.19 L 1605.00 301.44 L 1615.57 300.00 L 1625.82 301.75 L 1621.77 303.81 L 1617.78 314.71 L 1615.69 325.58 C 1614.69 325.72 1613.69 325.31 1613.45 324.67" fill="currentColor"/>
<path d="M 1633.00 312.44 L 1636.13 300.19 L 1642.83 309.25 C 1644.79 314.06 1646.64 318.00 1646.94 317.99 C 1647.25 317.98 1649.14 314.05 1651.15 309.24 L 1658.15 300.20 L 1661.19 312.45 L 1658.94 325.00 L 1657.00 316.33 C 1657.00 311.57 1656.66 307.99 1656.25 308.38 C 1655.84 308.78 1654.13 312.56 1652.47 316.80 L 1647.02 324.50 L 1641.53 316.81 C 1639.84 312.58 1638.12 308.79 1637.72 308.39 C 1637.33 307.99 1637.00 311.57 1637.00 316.33 L 1635.00 325.00 L 1633.00 312.44" fill="currentColor"/>
<path d="M 800.40 316.85 L 800.85 316.40 C 802.00 317.12 802.39 318.00 801.56 318.00 C 801.32 318.00 800.80 317.48 800.40 316.85" fill="currentColor"/>
<path d="M 658.44 310.48 C 661.16 308.05 663.12 305.78 662.79 305.45 C 661.81 304.47 656.75 307.57 653.05 311.41 L 651.55 314.96 C 652.62 314.93 655.72 312.92 658.44 310.48" fill="currentColor"/>
<path d="M 835.88 227.75 L 831.47 220.50 C 830.39 220.50 828.91 220.12 828.18 219.65 L 828.49 217.01 L 822.81 212.43 C 818.79 210.89 815.13 209.33 814.67 208.94 C 814.22 208.56 815.21 207.28 816.87 206.09 L 829.20 206.35 L 843.61 204.63 C 846.42 202.36 852.60 197.37 857.36 193.55 C 862.11 189.73 865.65 186.25 865.22 185.82 C 864.80 185.40 855.27 181.98 844.04 178.23 C 832.82 174.48 823.46 170.87 823.23 170.19 L 827.53 166.89 L 840.37 165.96 C 844.84 166.60 856.49 168.42 866.26 170.02 L 897.21 162.95 C 904.47 157.47 912.26 152.08 914.52 150.99 C 919.42 148.62 923.29 148.44 925.01 150.51 L 925.68 155.60 C 925.36 157.57 924.53 159.86 923.84 160.70 C 923.14 161.53 916.26 166.98 908.54 172.79 L 894.84 186.43 C 895.03 188.12 896.46 198.20 898.03 208.83 C 899.60 219.46 900.63 228.79 900.34 229.56 C 900.04 230.33 898.23 231.93 896.30 233.12 L 891.96 233.94 C 891.50 233.20 889.47 227.84 887.44 222.04 C 881.12 203.95 877.85 195.88 876.94 196.20 C 876.46 196.36 868.87 200.55 860.07 205.50 L 844.03 223.10 L 842.17 233.35 C 841.17 234.26 839.89 235.00 839.33 235.00 C 838.77 235.00 837.22 231.74 835.88 227.75" fill="currentColor"/>
<path d="M 784.33 229.33 C 784.70 228.97 785.30 228.97 785.67 229.33 C 786.03 229.70 785.73 230.00 785.00 230.00 C 784.27 230.00 783.97 229.70 784.33 229.33" fill="currentColor"/>
<path d="M 787.33 228.33 C 787.70 227.97 788.30 227.97 788.67 228.33 C 789.03 228.70 788.73 229.00 788.00 229.00 C 787.27 229.00 786.97 228.70 787.33 228.33" fill="currentColor"/>
</svg>