<svg xmlns="http://www.w3.org/2000/svg" viewBox="0 0 64 64">
  <defs>
    <linearGradient id="fg" x1="0%" y1="0%" x2="100%" y2="100%">
      <stop offset="0%" stopColor="#F59E0B"/>
      <stop offset="100%" stopColor="#C2410C"/>
    </linearGradient>
  </defs>
  <rect width="64" height="64" rx="14" fill="#0F172A"/>
  <text x="8" y="48" font-family="Outfit,system-ui,sans-serif" font-weight="850" font-size="42" fill="#C2410C" letter-spacing="-1">G</text>
  <g transform="translate(36, 30)">
    <circle cx="0" cy="0" r="14" fill="none" stroke="#C2410C" stroke-width="3"/>
    <path d="M -14,0 C -8,-4 8,-4 14,0 C 8,4 -8,4 -14,0" fill="none" stroke="#C2410C" stroke-width="0.8" opacity="0.3"/>
    <path d="M 0,-14 C -4,-8 -4,8 0,14 C 4,8 4,-8 0,-14" fill="none" stroke="#C2410C" stroke-width="0.8" opacity="0.3"/>
    <path d="M 1,-9 C 2,-8 2,-6 3,-5.5 C 4,-5 5.5,-4 6,-4 C 6.5,-3.5 5,-2.5 4,-2 C 3,-1 2.5,0.5 1,3 C 0.5,4 0,4 -0.5,3 C -1,2 -1.5,1 -2,0 C -3,-1 -4,-1 -5,-1.5 C -5.5,-1.5 -4.5,-3 -3.5,-3.5 C -2.5,-4 -1,-6 1,-9 Z" fill="url(#fg)" stroke="#FBBF24" stroke-width="0.6" stroke-linejoin="round"/>
  </g>
</svg>
